<svg width="200" height="57" viewBox="0 0 200 57" fill="none" xmlns="http://www.w3.org/2000/svg">
<g clip-path="url(#clip0_93_930)">
<path d="M51.9056 42.4211V42.395V24.999H41.5529L46.3151 29.2111V45.7986L51.9056 42.4211Z" fill="#BA8C3C"/>
<path d="M0 42.395V42.4211L5.59042 45.7986V11.2021L0 14.5796V42.395Z" fill="#122040"/>
<path d="M18.5312 53.6225L24.1087 57V0L18.5312 3.37749V53.6225Z" fill="#122040"/>
<path d="M9.26562 48.0155L14.856 51.3929V5.59473L9.26562 8.97221V48.0155Z" fill="#122040"/>
<path d="M51.9055 21.3212V14.5793L27.7839 0V57L43.9599 47.2196V40.4386L33.3743 46.8415V10.1194L51.9055 21.3212Z" fill="#122040"/>
<path d="M68.8579 13.5091H73.866V10.3794H76.5965V14.5785H81.0999V9.17969H83.8434V21.7507H81.0999V16.9127H76.5965V21.0335H66.1145V10.3794H68.8579V13.5091ZM73.866 18.7514V15.6999H68.8579V18.7514H73.866ZM71.8343 25.1152H81.0999V22.7679H83.8434V31.8571H69.0779V22.7679H71.8214V25.1152H71.8343ZM81.0999 29.575V27.306H71.8343V29.575H81.0999Z" fill="#122040"/>
<path d="M107.434 24.5155H98.5182V32.1833H95.7877V24.5155H86.975V22.2204H107.434V24.5155ZM104.937 19.521H89.4856V10.3535H104.937V19.521ZM92.1772 17.3041H102.18V12.6226H92.1772V17.3041Z" fill="#122040"/>
<path d="M112.675 13.5091H117.684V10.3794H120.414V14.5785H124.917V9.17969H127.661V21.7507H124.917V16.9127H120.414V21.0335H109.932V10.3794H112.675V13.5091ZM117.684 18.7514V15.6999H112.675V18.7514H117.684ZM115.652 25.1152H124.917V22.7679H127.661V31.8571H112.895V22.7679H115.639V25.1152H115.652ZM124.917 29.575V27.306H115.652V29.575H124.917Z" fill="#122040"/>
<path d="M143.28 16.4696C143.28 19.8862 140.654 22.2465 137.263 22.2465C133.873 22.2465 131.22 19.8732 131.22 16.4696C131.22 13.066 133.847 10.7188 137.263 10.7188C140.679 10.7188 143.28 13.1312 143.28 16.4696ZM133.911 16.4696C133.885 18.5039 135.348 19.7819 137.25 19.7819C139.152 19.7819 140.576 18.5039 140.576 16.4696C140.576 14.4353 139.114 13.1834 137.25 13.1834C135.387 13.1834 133.885 14.4875 133.911 16.4696ZM150.087 31.74H134.649V24.1505H137.418V29.4449H150.074V31.74H150.087ZM149.479 25.8327H146.71V9.20605H149.479V25.8327Z" fill="#122040"/>
<path d="M173.083 18.856L173.225 20.8903C171.375 21.2033 169.473 21.425 167.583 21.5554V25.9892H164.84V21.7119C162.743 21.8032 160.751 21.8162 158.991 21.8162L158.641 19.5472C162.782 19.5211 168.321 19.4689 173.083 18.856ZM171.53 14.1223C171.504 16.587 169.227 18.1649 165.953 18.1649C162.679 18.1649 160.349 16.587 160.349 14.1223C160.349 11.6577 162.627 10.0537 165.953 10.0537C169.279 10.0537 171.504 11.7098 171.53 14.1223ZM178.039 31.74H161.618V24.9459H164.361V29.4449H178.039V31.74ZM162.963 14.1223C162.963 15.3742 164.18 16.1045 165.966 16.1045C167.751 16.1045 168.89 15.3612 168.916 14.1223C168.89 12.8704 167.674 12.1402 165.966 12.1402C164.257 12.1402 162.963 12.8835 162.963 14.1223ZM177.522 26.6282H174.752V24.6199H170.366V22.6378H174.752V9.20605H177.522V26.6151V26.6282Z" fill="#122040"/>
<path d="M199.405 20.8382H196.661V18.83H191.265V16.6653H196.661V14.3962H191.563C190.152 17.9041 186.878 20.1993 181.922 21.3468L180.951 19.0256C186.218 17.9041 188.845 15.5308 189.22 12.4532H182.18V10.1581H192.287C192.287 10.8883 192.223 11.5664 192.145 12.2185H196.648V9.16699H199.392V20.8252L199.405 20.8382ZM199.405 27.7888H187.434V29.6927H200V31.9618H184.691V25.6763H196.661V23.968H184.665V21.725H199.405V27.7888Z" fill="#122040"/>
<path d="M84.1152 39.6816H85.2798L86.3798 44.1676H86.4445L87.6092 39.6816H88.6833L89.8479 44.1806H89.8997L90.9997 39.6816H92.1643L90.4562 45.7715H89.3821L88.1656 41.4943H88.1268L86.9104 45.7715H85.8363L84.1281 39.6816H84.1152Z" fill="#122040"/>
<path d="M95.6454 45.8629C94.0537 45.8629 92.8761 44.6893 92.8761 42.7332C92.8761 40.7772 94.0667 39.6035 95.6454 39.6035C97.2242 39.6035 98.4148 40.7641 98.4148 42.7332C98.4148 44.7023 97.2242 45.8629 95.6454 45.8629ZM95.6454 40.5946C94.6619 40.5946 93.9631 41.3509 93.9631 42.7463C93.9631 44.1416 94.6619 44.898 95.6454 44.898C96.6289 44.898 97.3277 44.1416 97.3277 42.7463C97.3277 41.3509 96.6289 40.5946 95.6454 40.5946Z" fill="#122040"/>
<path d="M104.859 45.7842H103.889L101.029 41.6243H100.977V45.7842H99.89V39.6943H100.874L103.72 43.8673H103.785V39.6943H104.859V45.7842Z" fill="#122040"/>
<path d="M109.091 40.5942C108.12 40.5942 107.409 41.3636 107.409 42.7329C107.409 44.1021 108.107 44.8846 109.117 44.8846C110.023 44.8846 110.618 44.3238 110.631 43.4632H109.233V42.6025H111.692V43.3328C111.692 44.8976 110.618 45.8756 109.13 45.8756C107.46 45.8756 106.335 44.6759 106.335 42.7459C106.335 40.8159 107.512 39.6162 109.104 39.6162C110.437 39.6162 111.472 40.4508 111.653 41.6505H110.54C110.346 40.9985 109.841 40.6073 109.117 40.6073L109.091 40.5942Z" fill="#122040"/>
<path d="M113.763 39.6816L115.251 42.381H115.315L116.804 39.6816H118.033L115.833 43.4895V45.7715H114.746V43.4895L112.546 39.6816H113.775H113.763Z" fill="#122040"/>
<path d="M119.224 39.6816H123.158V40.5945H120.311V42.2637H122.951V43.1765H120.311V44.8457H123.171V45.7715H119.224V39.6816Z" fill="#122040"/>
<path d="M127.325 45.8629C125.733 45.8629 124.555 44.6893 124.555 42.7332C124.555 40.7772 125.746 39.6035 127.325 39.6035C128.903 39.6035 130.094 40.7641 130.094 42.7332C130.094 44.7023 128.903 45.8629 127.325 45.8629ZM127.325 40.5946C126.341 40.5946 125.642 41.3509 125.642 42.7463C125.642 44.1416 126.341 44.898 127.325 44.898C128.308 44.898 129.007 44.1416 129.007 42.7463C129.007 41.3509 128.308 40.5946 127.325 40.5946Z" fill="#122040"/>
<path d="M131.569 39.6816H132.656V44.8457H135.335V45.7715H131.582V39.6816H131.569Z" fill="#122040"/>
<path d="M139.23 39.6816H140.317V44.8457H142.996V45.7715H139.243V39.6816H139.23Z" fill="#122040"/>
<path d="M144.199 45.7842L146.335 39.6943H147.667L149.803 45.7842H148.638L148.133 44.2715H145.856L145.351 45.7842H144.186H144.199ZM147.849 43.3848L147.02 40.9332H146.969L146.153 43.3848H147.849Z" fill="#122040"/>
<path d="M150.036 39.6816H151.2L152.3 44.1676H152.365L153.53 39.6816H154.604L155.768 44.1806H155.82L156.92 39.6816H158.085L156.377 45.7715H155.302L154.086 41.4943H154.047L152.831 45.7715H151.757L150.049 39.6816H150.036Z" fill="#122040"/>
<path d="M161.799 39.6816H165.668V40.5945H162.873V42.2637H165.396V43.1765H162.873V45.7715H161.786V39.6816H161.799Z" fill="#122040"/>
<path d="M168.179 45.7842H167.092V39.6943H168.179V45.7842Z" fill="#122040"/>
<path d="M169.809 39.6816H172.087C173.471 39.6816 174.222 40.4641 174.222 41.6247C174.222 42.4593 173.847 43.0722 173.135 43.3591L174.442 45.7715H173.226L172.035 43.5416H170.896V45.7715H169.809V39.6816ZM171.918 42.6288C172.734 42.6288 173.109 42.2767 173.109 41.6247C173.109 40.9726 172.747 40.5945 171.918 40.5945H170.896V42.6288H171.918Z" fill="#122040"/>
<path d="M176.991 39.6816L178.79 44.1154H178.868L180.666 39.6816H181.999V45.7715H180.951V41.5856H180.886L179.204 45.7585H178.428L176.745 41.5725H176.694V45.7846H175.645V39.6947H176.978L176.991 39.6816Z" fill="#122040"/>
</g>
<defs>
<clipPath id="clip0_93_930">
<rect width="200" height="57" fill="white"/>
</clipPath>
</defs>
</svg>
