<svg width="200" height="57" viewBox="0 0 200 57" fill="none" xmlns="http://www.w3.org/2000/svg">
<g clip-path="url(#clip0_56_789)">
<path d="M51.9056 42.4206V42.3946V24.9985H41.553L46.3152 29.2106V45.7981L51.9056 42.4206Z" fill="#555555"/>
<path d="M0 42.3948V42.4208L5.59042 45.7983V11.2019L0 14.5794V42.3948Z" fill="#555555"/>
<path d="M18.5312 53.6225L24.1087 57V0L18.5312 3.37749V53.6225Z" fill="#555555"/>
<path d="M9.26562 48.0152L14.856 51.3927V5.59448L9.26562 8.97197V48.0152Z" fill="#555555"/>
<path d="M51.9056 21.3212V14.5793L27.7839 0V57L43.9599 47.2196V40.4386L33.3744 46.8415V10.1194L51.9056 21.3212Z" fill="#555555"/>
<path d="M68.8579 13.5099H73.866V10.3801H76.5965V14.5792H81.0999V9.18042H83.8434V21.7515H81.0999V16.9134H76.5965V21.0342H66.1145V10.3801H68.8579V13.5099ZM73.866 18.7521V15.7007H68.8579V18.7521H73.866ZM71.8343 25.1159H81.0999V22.7686H83.8434V31.8578H69.0779V22.7686H71.8214V25.1159H71.8343ZM81.0999 29.5758V27.3067H71.8343V29.5758H81.0999Z" fill="#555555"/>
<path d="M107.434 24.5162H98.5183V32.184H95.7878V24.5162H86.9751V22.2211H107.434V24.5162ZM104.937 19.5217H89.4856V10.3542H104.937V19.5217ZM92.1773 17.3048H102.181V12.6233H92.1773V17.3048Z" fill="#555555"/>
<path d="M112.676 13.5099H117.684V10.3801H120.414V14.5792H124.918V9.18042H127.661V21.7515H124.918V16.9134H120.414V21.0342H109.932V10.3801H112.676V13.5099ZM117.684 18.7521V15.7007H112.676V18.7521H117.684ZM115.652 25.1159H124.918V22.7686H127.661V31.8578H112.896V22.7686H115.639V25.1159H115.652ZM124.918 29.5758V27.3067H115.652V29.5758H124.918Z" fill="#555555"/>
<path d="M143.281 16.4701C143.281 19.8867 140.654 22.247 137.263 22.247C133.873 22.247 131.22 19.8737 131.22 16.4701C131.22 13.0665 133.847 10.7192 137.263 10.7192C140.679 10.7192 143.281 13.1317 143.281 16.4701ZM133.911 16.4701C133.886 18.5044 135.348 19.7824 137.25 19.7824C139.152 19.7824 140.576 18.5044 140.576 16.4701C140.576 14.4358 139.114 13.1839 137.25 13.1839C135.387 13.1839 133.886 14.4879 133.911 16.4701ZM150.087 31.7405H134.649V24.151H137.418V29.4454H150.074V31.7405H150.087ZM149.479 25.8332H146.71V9.20654H149.479V25.8332Z" fill="#555555"/>
<path d="M173.083 18.8565L173.225 20.8908C171.375 21.2038 169.473 21.4255 167.583 21.5559V25.9897H164.84V21.7124C162.743 21.8037 160.75 21.8167 158.991 21.8167L158.641 19.5477C162.782 19.5216 168.321 19.4694 173.083 18.8565ZM171.53 14.1228C171.504 16.5875 169.227 18.1654 165.953 18.1654C162.679 18.1654 160.349 16.5875 160.349 14.1228C160.349 11.6582 162.627 10.0542 165.953 10.0542C169.278 10.0542 171.504 11.7103 171.53 14.1228ZM178.039 31.7405H161.617V24.9464H164.361V29.4454H178.039V31.7405ZM162.95 14.1228C162.95 15.3747 164.167 16.105 165.953 16.105C167.739 16.105 168.877 15.3617 168.903 14.1228C168.877 12.8709 167.661 12.1407 165.953 12.1407C164.244 12.1407 162.95 12.884 162.95 14.1228ZM177.522 26.6286H174.752V24.6204H170.365V22.6383H174.752V9.20654H177.522V26.6156V26.6286Z" fill="#555555"/>
<path d="M199.405 20.8387H196.661V18.8305H191.265V16.6658H196.661V14.3967H191.563C190.152 17.9046 186.878 20.1997 181.922 21.3473L180.951 19.0261C186.218 17.9046 188.845 15.5312 189.22 12.4537H182.181V10.1586H192.287C192.287 10.8888 192.223 11.5669 192.145 12.219H196.648V9.16748H199.392V20.8257L199.405 20.8387ZM199.405 27.7893H187.435V29.6932H200V31.9623H184.691V25.6767H196.661V23.9684H184.665V21.7255H199.405V27.7893Z" fill="#555555"/>
<path d="M84.1152 39.6821H85.2799L86.3799 44.1681H86.4446L87.6092 39.6821H88.6833L89.848 44.1811H89.8998L90.9997 39.6821H92.1644L90.4562 45.772H89.3821L88.1657 41.4948H88.1269L86.9105 45.772H85.8364L84.1282 39.6821H84.1152Z" fill="#555555"/>
<path d="M95.6456 45.8634C94.0538 45.8634 92.8762 44.6898 92.8762 42.7337C92.8762 40.7776 94.0668 39.604 95.6456 39.604C97.2243 39.604 98.4149 40.7646 98.4149 42.7337C98.4149 44.7028 97.2243 45.8634 95.6456 45.8634ZM95.6456 40.5951C94.6621 40.5951 93.9633 41.3514 93.9633 42.7468C93.9633 44.1421 94.6621 44.8984 95.6456 44.8984C96.6291 44.8984 97.3279 44.1421 97.3279 42.7468C97.3279 41.3514 96.6291 40.5951 95.6456 40.5951Z" fill="#555555"/>
<path d="M104.859 45.7852H103.889L101.029 41.6253H100.977V45.7852H99.8901V39.6953H100.874L103.721 43.8683H103.785V39.6953H104.859V45.7852Z" fill="#555555"/>
<path d="M109.091 40.595C108.12 40.595 107.409 41.3644 107.409 42.7336C107.409 44.1029 108.107 44.8853 109.117 44.8853C110.023 44.8853 110.618 44.3246 110.631 43.4639H109.233V42.6032H111.692V43.3335C111.692 44.8983 110.618 45.8764 109.13 45.8764C107.46 45.8764 106.334 44.6767 106.334 42.7467C106.334 40.8167 107.512 39.6169 109.104 39.6169C110.437 39.6169 111.472 40.4515 111.653 41.6513H110.54C110.346 40.9992 109.841 40.608 109.117 40.608L109.091 40.595Z" fill="#555555"/>
<path d="M113.763 39.6821L115.251 42.3815H115.315L116.804 39.6821H118.033L115.833 43.49V45.772H114.746V43.49L112.546 39.6821H113.776H113.763Z" fill="#555555"/>
<path d="M119.224 39.6821H123.158V40.595H120.311V42.2641H122.951V43.177H120.311V44.8462H123.171V45.772H119.224V39.6821Z" fill="#555555"/>
<path d="M127.325 45.8634C125.733 45.8634 124.555 44.6898 124.555 42.7337C124.555 40.7776 125.746 39.604 127.325 39.604C128.903 39.604 130.094 40.7646 130.094 42.7337C130.094 44.7028 128.903 45.8634 127.325 45.8634ZM127.325 40.5951C126.341 40.5951 125.642 41.3514 125.642 42.7468C125.642 44.1421 126.341 44.8984 127.325 44.8984C128.308 44.8984 129.007 44.1421 129.007 42.7468C129.007 41.3514 128.308 40.5951 127.325 40.5951Z" fill="#555555"/>
<path d="M131.569 39.6821H132.656V44.8462H135.335V45.772H131.582V39.6821H131.569Z" fill="#555555"/>
<path d="M139.23 39.6821H140.317V44.8462H142.996V45.772H139.243V39.6821H139.23Z" fill="#555555"/>
<path d="M144.199 45.7852L146.335 39.6953H147.668L149.803 45.7852H148.638L148.133 44.2725H145.856L145.351 45.7852H144.187H144.199ZM147.849 43.3858L147.021 40.9342H146.969L146.154 43.3858H147.849Z" fill="#555555"/>
<path d="M150.036 39.6821H151.2L152.3 44.1681H152.365L153.53 39.6821H154.604L155.768 44.1811H155.82L156.92 39.6821H158.085L156.377 45.772H155.303L154.086 41.4948H154.047L152.831 45.772H151.757L150.049 39.6821H150.036Z" fill="#555555"/>
<path d="M161.799 39.6821H165.668V40.595H162.873V42.2641H165.396V43.177H162.873V45.772H161.786V39.6821H161.799Z" fill="#555555"/>
<path d="M168.179 45.7852H167.092V39.6953H168.179V45.7852Z" fill="#555555"/>
<path d="M169.809 39.6821H172.087C173.471 39.6821 174.222 40.4646 174.222 41.6252C174.222 42.4598 173.847 43.0727 173.135 43.3595L174.442 45.772H173.225L172.035 43.5421H170.896V45.772H169.809V39.6821ZM171.918 42.6293C172.734 42.6293 173.109 42.2772 173.109 41.6252C173.109 40.9731 172.747 40.595 171.918 40.595H170.896V42.6293H171.918Z" fill="#555555"/>
<path d="M176.991 39.6821L178.79 44.1159H178.868L180.667 39.6821H181.999V45.772H180.951V41.586H180.887L179.204 45.759H178.428L176.745 41.573H176.694V45.7851H175.646V39.6952H176.978L176.991 39.6821Z" fill="#555555"/>
</g>
<defs>
<clipPath id="clip0_56_789">
<rect width="200" height="57" fill="white"/>
</clipPath>
</defs>
</svg>
