<svg preserveAspectRatio="none" width="100%" height="100%" overflow="visible" style="display: block;" viewBox="0 0 26.4101 25.8602" fill="none" xmlns="http://www.w3.org/2000/svg">
<g id="Group">
<path id="Vector" d="M21.4 16.7001C21.63 16.2101 21.81 15.7101 21.95 15.2001L25.41 14.2901L25.01 9.54009L21.5 9.22009C21.04 8.18009 20.39 7.2301 19.57 6.4201L20.49 3.03009L16.18 1.0001L14.16 3.87009C13.01 3.75009 11.86 3.8601 10.77 4.1701L8.28003 1.6701L4.37003 4.39009L5.87003 7.64009C5.57003 8.07009 5.30003 8.53009 5.06003 9.02009C4.81003 9.55009 4.62003 10.1001 4.48003 10.6501L1.00003 11.5701L1.40003 16.3201L5.04003 16.6501C5.49003 17.6201 6.11003 18.5201 6.88003 19.2901L5.92003 22.8301L10.23 24.8601L12.34 21.8601C13.43 21.9701 14.51 21.8801 15.55 21.6001L18.13 24.1901L22.04 21.4701L20.53 18.2001C20.86 17.7401 21.16 17.2501 21.41 16.7201L21.4 16.7001Z" stroke="var(--stroke-0, white)" stroke-width="2" stroke-linecap="round" stroke-linejoin="round"/>
<path id="Vector_2" d="M17 14.6301C16.02 16.7101 13.54 17.6101 11.45 16.6301C9.36003 15.6501 8.47003 13.1701 9.45003 11.0801C10.43 8.9901 12.91 8.10009 15 9.08009C17.08 10.0601 17.98 12.5401 17 14.6301Z" stroke="var(--stroke-0, white)" stroke-width="2" stroke-linecap="round" stroke-linejoin="round"/>
</g>
</svg>
