<svg preserveAspectRatio="none" width="50" height="33" overflow="visible" style="display: block;" viewBox="0 0 50 33" fill="none" xmlns="http://www.w3.org/2000/svg">
<g id="_&#234;&#178;&#169;&#235;&#166;&#172;_&#235;&#170;&#168;&#235;&#147;&#156;" clip-path="url(#clip0_111_966)">
<path id="Vector" d="M0.669972 16.3654H15.2553V17.1799C15.2553 21.0306 12.1399 24.161 8.30765 24.161H7.61088C3.77864 24.161 0.663272 21.0306 0.663272 17.1799V16.3654H0.669972Z" stroke="var(--stroke-0, white)" stroke-width="2" stroke-linecap="round" stroke-linejoin="round"/>
<path id="Vector_2" d="M0.669972 16.8366L7.96597 2.85435L15.2553 16.3654" stroke="var(--stroke-0, white)" stroke-width="2" stroke-linecap="round" stroke-linejoin="round"/>
<path id="Vector_3" d="M7.96597 2.65239C8.50989 2.65239 8.95082 2.20933 8.95082 1.66279C8.95082 1.11625 8.50989 0.673195 7.96597 0.673195C7.42204 0.673195 6.98111 1.11625 6.98111 1.66279C6.98111 2.20933 7.42204 2.65239 7.96597 2.65239Z" stroke="var(--stroke-0, white)" stroke-width="2" stroke-linecap="round" stroke-linejoin="round"/>
<path id="Vector_4" d="M34.738 16.3654H49.3233V17.1799C49.3233 21.0306 46.208 24.161 42.3757 24.161H41.679C37.8467 24.161 34.7313 21.0306 34.7313 17.1799V16.3654H34.738Z" stroke="var(--stroke-0, white)" stroke-width="2" stroke-linecap="round" stroke-linejoin="round"/>
<path id="Vector_5" d="M34.738 16.8366L42.034 2.85435L49.33 16.3654" stroke="var(--stroke-0, white)" stroke-width="2" stroke-linecap="round" stroke-linejoin="round"/>
<path id="Vector_6" d="M43.0189 1.66279C43.0189 2.20808 42.5767 2.65239 42.034 2.65239C41.4914 2.65239 41.0492 2.20808 41.0492 1.66279C41.0492 1.1175 41.4914 0.673195 42.034 0.673195C42.5767 0.673195 43.0189 1.1175 43.0189 1.66279Z" stroke="var(--stroke-0, white)" stroke-width="2" stroke-linecap="round" stroke-linejoin="round"/>
<path id="Vector_7" d="M8.94413 1.66279H41.1162" stroke="var(--stroke-0, white)" stroke-width="2" stroke-linecap="round" stroke-linejoin="round"/>
<path id="Vector_8" d="M25.0301 1.66279V24.686" stroke="var(--stroke-0, white)" stroke-width="2" stroke-linecap="round" stroke-linejoin="round"/>
<path id="Vector_9" d="M17.426 32.3268L25.0301 24.686L32.641 32.3268H17.426Z" stroke="var(--stroke-0, white)" stroke-width="2" stroke-linecap="round" stroke-linejoin="round"/>
</g>
<defs>
<clipPath id="clip0_111_966">
<rect width="50" height="33" fill="white"/>
</clipPath>
</defs>
</svg>
