<svg preserveAspectRatio="none" width="100%" height="100%" overflow="visible" style="display: block;" viewBox="0 0 32.3501 31.6202" fill="none" xmlns="http://www.w3.org/2000/svg">
<g id="Group">
<path id="Vector" d="M26.37 20.5201C26.66 19.9101 26.88 19.2801 27.05 18.6501L31.35 17.5101L30.85 11.6101L26.48 11.2101C25.91 9.92009 25.11 8.74009 24.08 7.73009L25.22 3.52009L19.86 1.00009L17.35 4.56009C15.92 4.41009 14.49 4.55009 13.14 4.93009L10.05 1.82009L5.19003 5.20009L7.05004 9.23009C6.67004 9.76009 6.34004 10.3301 6.05004 10.9401C5.74004 11.6001 5.50003 12.2801 5.33003 12.9601L1.00003 14.1101L1.50003 20.0101L6.03004 20.4201C6.59004 21.6301 7.36003 22.7401 8.32003 23.7001L7.13004 28.1001L12.49 30.6201L15.12 26.8901C16.47 27.0201 17.82 26.9101 19.11 26.5701L22.31 29.7901L27.17 26.4101L25.29 22.3401C25.71 21.7701 26.07 21.1601 26.39 20.4901L26.37 20.5201Z" stroke="var(--stroke-0, white)" stroke-width="2" stroke-linecap="round" stroke-linejoin="round"/>
<path id="Vector_2" d="M20.9 17.9401C19.68 20.5301 16.59 21.6401 14 20.4201C11.41 19.2001 10.3 16.1101 11.52 13.5201C12.74 10.9301 15.83 9.82009 18.42 11.0401C21.01 12.2601 22.12 15.3501 20.9 17.9401Z" stroke="var(--stroke-0, white)" stroke-width="2" stroke-linecap="round" stroke-linejoin="round"/>
</g>
</svg>
