<svg preserveAspectRatio="none" width="50" height="57" overflow="visible" style="display: block;" viewBox="0 0 50 57" fill="none" xmlns="http://www.w3.org/2000/svg">
<g id="_&#234;&#178;&#169;&#235;&#166;&#172;_&#235;&#170;&#168;&#235;&#147;&#156;" clip-path="url(#clip0_111_993)">
<path id="Vector" d="M0.778331 0.779327V35.966H30.5651V10.7703L20.5869 0.779327H0.778331Z" stroke="var(--stroke-0, white)" stroke-width="2" stroke-linecap="round" stroke-linejoin="round"/>
<path id="Vector_2" d="M30.5651 10.7703L20.5869 0.779327L20.5713 10.7703H30.5651Z" stroke="var(--stroke-0, white)" stroke-width="2" stroke-linecap="round" stroke-linejoin="round"/>
<g id="Group">
<path id="Vector_3" d="M24.5097 44.671C31.4734 44.671 37.1186 39.0186 37.1186 32.0459C37.1186 25.0733 31.4734 19.4208 24.5097 19.4208C17.5459 19.4208 11.9007 25.0733 11.9007 32.0459C11.9007 39.0186 17.5459 44.671 24.5097 44.671Z" fill="var(--fill-0, #2A3653)" stroke="var(--stroke-0, white)" stroke-width="2" stroke-linecap="round" stroke-linejoin="round"/>
<path id="Vector_4" d="M24.5097 40.7588C29.3155 40.7588 33.2114 36.8579 33.2114 32.0459C33.2114 27.2339 29.3155 23.3331 24.5097 23.3331C19.7038 23.3331 15.8079 27.2339 15.8079 32.0459C15.8079 36.8579 19.7038 40.7588 24.5097 40.7588Z" fill="var(--fill-0, #2A3653)" stroke="var(--stroke-0, white)" stroke-width="2" stroke-linecap="round" stroke-linejoin="round"/>
<path id="Vector_5" d="M34.161 44.5619L37.5311 41.1952" stroke="var(--stroke-0, white)" stroke-width="2" stroke-linecap="round" stroke-linejoin="round"/>
<path id="Vector_6" d="M37.6323 44.671L49.2217 56.2207" stroke="var(--stroke-0, white)" stroke-width="2" stroke-linecap="round" stroke-linejoin="round"/>
</g>
</g>
<defs>
<clipPath id="clip0_111_993">
<rect width="50" height="57" fill="white"/>
</clipPath>
</defs>
</svg>
