<svg preserveAspectRatio="none" width="50" height="47" overflow="visible" style="display: block;" viewBox="0 0 50 47" fill="none" xmlns="http://www.w3.org/2000/svg">
<g id="icons" clip-path="url(#clip0_111_985)">
<path id="Vector" d="M14.6519 22.0474C14.6519 28.0556 19.2909 32.9402 24.9941 32.9402C30.6973 32.9402 35.3422 28.0556 35.3422 22.0474C35.3422 16.0393 30.7032 11.1547 24.9941 11.1547C19.285 11.1547 14.6519 16.0393 14.6519 22.0474ZM26.8873 16.9067C26.8873 16.9067 28.1103 20.4231 32.7669 22.0474C32.7669 26.6467 29.2803 30.3902 24.9941 30.3902C20.7079 30.3902 17.2272 26.6467 17.2213 22.0474C18.0268 22.0649 23.3126 21.9718 26.8815 16.9009L26.8873 16.9067Z" fill="var(--fill-0, white)"/>
<path id="Vector_2" d="M32.5964 32.1659C30.515 33.9299 27.8751 34.9953 25 34.9953C22.1249 34.9953 19.4908 33.9357 17.4036 32.1659C11.9414 34.9138 8.20202 40.5203 8.20202 47H41.798C41.798 40.5203 38.0527 34.9138 32.5964 32.1659Z" fill="var(--fill-0, white)"/>
<path id="Vector_3" d="M13.0468 15.0612C13.6171 15.0612 14.1698 14.9855 14.699 14.8516C15.9337 12.9362 17.6505 11.3818 19.6672 10.3746C20.0082 9.49548 20.2023 8.53487 20.2023 7.53351C20.2023 3.38251 16.992 0 13.0527 0C9.11336 0 5.9031 3.37669 5.9031 7.53351C5.9031 11.6903 9.11336 15.067 13.0527 15.067L13.0468 15.0612Z" fill="var(--fill-0, white)"/>
<path id="Vector_4" d="M12.5941 22.0474C12.5941 20.4755 12.8645 18.9677 13.3584 17.5704C13.2526 17.5704 13.1468 17.5821 13.0409 17.5821C10.8067 17.5821 8.76058 16.7554 7.1437 15.3872C2.91039 17.5238 0 21.8786 0 26.9145H13.5172C12.9292 25.4125 12.6 23.7707 12.6 22.0474H12.5941Z" fill="var(--fill-0, white)"/>
<path id="Vector_5" d="M35.301 14.8516C35.8302 14.9855 36.3829 15.0612 36.9532 15.0612C40.8984 15.0612 44.1028 11.6845 44.1028 7.52768C44.1028 3.37087 40.8984 0 36.9532 0C33.008 0 29.8036 3.37669 29.8036 7.53351C29.8036 8.54069 29.9976 9.5013 30.3387 10.3746C32.3554 11.3818 34.0663 12.9362 35.3069 14.8516H35.301Z" fill="var(--fill-0, white)"/>
<path id="Vector_6" d="M36.9532 17.5879C36.8474 17.5879 36.7415 17.5762 36.6357 17.5762C37.1296 18.9735 37.4 20.4755 37.4 22.0533C37.4 23.7765 37.0708 25.4183 36.4828 26.9203H50C50 21.8902 47.0896 17.5297 42.8504 15.3989C41.2335 16.7728 39.1816 17.5937 36.9532 17.5937V17.5879Z" fill="var(--fill-0, white)"/>
</g>
<defs>
<clipPath id="clip0_111_985">
<rect width="50" height="47" fill="white"/>
</clipPath>
</defs>
</svg>
